<svg width="89" height="42" viewBox="0 0 89 42" fill="none" xmlns="http://www.w3.org/2000/svg">
<rect width="89" height="42" rx="4.81081" fill="white"/>
<path d="M32.63 27H24.368V14.13H25.682V25.848H32.63V27ZM37.2497 27.252C34.4957 27.252 32.8397 25.272 32.8397 22.428C32.8397 19.566 34.4957 17.586 37.2497 17.586C40.0037 17.586 41.6597 19.566 41.6597 22.428C41.6597 25.272 40.0037 27.252 37.2497 27.252ZM37.2497 26.226C39.3917 26.226 40.4357 24.534 40.4357 22.428C40.4357 20.304 39.3917 18.612 37.2497 18.612C35.1077 18.612 34.0637 20.304 34.0637 22.428C34.0637 24.534 35.1077 26.226 37.2497 26.226ZM50.0245 19.26V17.82H51.1945V26.424C51.1945 29.034 49.5745 30.294 47.0545 30.294C44.5705 30.294 43.2565 29.088 43.1125 27.486H44.3365C44.5165 28.476 45.2905 29.268 47.0725 29.268C48.9265 29.268 50.0245 28.458 50.0245 26.586V24.876H49.9885C49.4485 25.83 48.4405 26.568 46.8925 26.568C44.6965 26.568 42.8605 25.128 42.8605 22.068C42.8605 19.044 44.6965 17.604 46.8925 17.604C48.4405 17.604 49.4485 18.342 49.9885 19.26H50.0245ZM47.0545 25.542C48.7465 25.542 50.0245 24.426 50.0245 22.068C50.0245 19.746 48.7465 18.63 47.0545 18.63C45.1645 18.63 44.0845 19.998 44.0845 22.068C44.0845 24.174 45.1645 25.542 47.0545 25.542ZM54.662 15.984H53.15V14.472H54.662V15.984ZM54.5 27H53.33V17.82H54.5V27ZM61.0083 17.604C62.6463 17.604 64.0143 18.522 64.0143 20.556V27H62.8443V20.808C62.8443 19.638 62.3043 18.63 60.7203 18.63C58.9743 18.63 57.8223 19.854 57.8223 21.204V27H56.6523V17.82H57.8223V19.134H57.8583C58.3803 18.378 59.3703 17.604 61.0083 17.604Z" fill="#394269"/>
</svg>
